<svg xmlns="http://www.w3.org/2000/svg" xmlns:xlink="http://www.w3.org/1999/xlink" width="100" height="100" viewBox="0 0 100 100">
	<defs>
		<filter id="Rectangle_82" x="9.717" y="39.271" width="43.756" height="36.512" filterUnits="userSpaceOnUse">
			<feOffset dy="3" input="SourceAlpha"/>
			<feGaussianBlur stdDeviation="3" result="blur"/>
			<feFlood flood-opacity="0.161"/>
			<feComposite operator="in" in2="blur"/>
			<feComposite in="SourceGraphic"/>
		</filter>
		<filter id="Rectangle_83" x="13.188" y="49.211" width="37.317" height="29.268" filterUnits="userSpaceOnUse">
			<feOffset dy="3" input="SourceAlpha"/>
			<feGaussianBlur stdDeviation="3" result="blur-2"/>
			<feFlood flood-opacity="0.161"/>
			<feComposite operator="in" in2="blur-2"/>
			<feComposite in="SourceGraphic"/>
		</filter>
		<filter id="Rectangle_81" x="27.202" y="22.977" width="44.561" height="64.682" filterUnits="userSpaceOnUse">
			<feOffset dy="3" input="SourceAlpha"/>
			<feGaussianBlur stdDeviation="3" result="blur-3"/>
			<feFlood flood-opacity="0.161"/>
			<feComposite operator="in" in2="blur-3"/>
			<feComposite in="SourceGraphic"/>
		</filter>
		<linearGradient id="linear-gradient" x1="0.5" x2="0.5" y2="1" gradientUnits="objectBoundingBox">
			<stop offset="0" stop-color="#1247c9"/>
			<stop offset="1" stop-color="#a092d4"/>
		</linearGradient>
		<radialGradient id="radial-gradient" cx="0.5" cy="0.5" r="0.5" gradientUnits="objectBoundingBox">
			<stop offset="0" stop-color="#8f91ff"/>
			<stop offset="1" stop-color="#ab9fff"/>
		</radialGradient>
		<radialGradient id="radial-gradient-2" cx="0.5" cy="0.5" r="0.5" gradientUnits="objectBoundingBox">
			<stop offset="0" stop-color="#feb89f"/>
			<stop offset="1" stop-color="#fc8e9b"/>
		</radialGradient>
	</defs>
	<circle id="Ellipse_12" data-name="Ellipse 12" cx="50" cy="50" r="50" fill="#44d6db" opacity="0.05"/>
	<g transform="matrix(1, 0, 0, 1, 0, 0)" filter="url(#Rectangle_82)">
		<rect id="Rectangle_82-2" data-name="Rectangle 82" width="25.756" height="18.512" rx="2" transform="translate(18.72 45.27)" fill="#fff"/>
	</g>
	<g transform="matrix(1, 0, 0, 1, 0, 0)" filter="url(#Rectangle_83)">
		<rect id="Rectangle_83-2" data-name="Rectangle 83" width="19.317" height="11.268" rx="1" transform="translate(22.19 55.21)" fill="#fff" opacity="0.32"/>
	</g>
	<line id="Line_4" data-name="Line 4" x2="13.143" transform="translate(25.504 49.489)" fill="none" stroke="#1a1e81" stroke-linecap="round" stroke-width="2"/>
	<line id="Line_5" data-name="Line 5" x2="9.638" transform="translate(26.552 54.698)" fill="none" stroke="#1a1e81" stroke-linecap="round" stroke-width="2" opacity="0.78"/>
	<line id="Line_6" data-name="Line 6" x2="5.257" transform="translate(28.642 58.866)" fill="none" stroke="#1a1e81" stroke-linecap="round" stroke-width="2" opacity="0.69"/>
	<circle id="Ellipse_9" data-name="Ellipse 9" cx="2.012" cy="2.012" r="2.012" transform="translate(29.084 14.698)" fill="#b8aae5"/>
	<circle id="Ellipse_10" data-name="Ellipse 10" cx="1.207" cy="1.207" r="1.207" transform="translate(26.087 81.09)" fill="#ed2944"/>
	<g transform="matrix(1, 0, 0, 1, 0, 0)" filter="url(#Rectangle_81)">
		<rect id="Rectangle_81-2" data-name="Rectangle 81" width="26.561" height="46.682" rx="4" transform="translate(36.2 28.98)" fill="#fff"/>
	</g>
	<path id="Path_103" data-name="Path 103" d="M5990.438,2803.207h-9.693s-.383-1.285-.985-1.285h-3.7s-1.621-.2-1.621,2.819v35.382a2.086,2.086,0,0,0,2.1,2.1c2.041-.032,18.209,0,18.209,0s1.652-.063,1.587-2.407,0-36.6,0-36.6Z" transform="translate(-5935.856 -2769.732)" fill="url(#linear-gradient)"/>
	<line id="Line_3" data-name="Line 3" x2="7.075" transform="translate(46.034 73.242)" fill="none" stroke="#fff" stroke-linecap="round" stroke-width="1.5"/>
	<circle id="Ellipse_38" data-name="Ellipse 38" cx="2" cy="2" r="2" transform="translate(75.447 24.036)" fill="#ed2944"/>
	<circle id="Ellipse_37" data-name="Ellipse 37" cx="3" cy="3" r="3" transform="translate(83.018 53.063)" fill="#1975d2" opacity="0.1"/>
	<circle id="Ellipse_35" data-name="Ellipse 35" cx="6.728" cy="6.728" r="6.728" transform="translate(55.252 23.545)" fill="#fce535"/>
	<ellipse id="Ellipse_36" data-name="Ellipse 36" cx="5.862" cy="5.862" rx="5.862" ry="5.862" transform="translate(57.282 69.446)" fill="url(#radial-gradient)"/>
	<circle id="Ellipse_19" data-name="Ellipse 19" cx="6.113" cy="6.113" r="6.113" transform="translate(12.387 39.237)" fill="url(#radial-gradient-2)"/>
	<path id="Path_121" data-name="Path 121" d="M1.4-3.389H-3.511v-.961l2.268-2.565A5.733,5.733,0,0,0-.52-7.928,1.684,1.684,0,0,0-.307-8.69a1.1,1.1,0,0,0-.226-.724.833.833,0,0,0-.679-.272.872.872,0,0,0-.739.347,1.422,1.422,0,0,0-.262.88H-3.641l-.01-.03a2.176,2.176,0,0,1,.644-1.652,2.411,2.411,0,0,1,1.8-.677,2.484,2.484,0,0,1,1.75.576A2,2,0,0,1,1.162-8.7a2.176,2.176,0,0,1-.35,1.2,13.534,13.534,0,0,1-1.2,1.5L-1.6-4.541l.01.025H1.4Z" transform="translate(63.228 37.026)" fill="#030508"/>
	<path id="Path_122" data-name="Path 122" d="M.2-9.221a1.344,1.344,0,0,1-.224.767,1.51,1.51,0,0,1-.616.522,1.783,1.783,0,0,1,.757.562,1.343,1.343,0,0,1,.28.839A1.522,1.522,0,0,1-.17-5.272a2.231,2.231,0,0,1-1.439.45,2.406,2.406,0,0,1-1.505-.45A1.5,1.5,0,0,1-3.7-6.531a1.313,1.313,0,0,1,.29-.839,1.84,1.84,0,0,1,.787-.562,1.558,1.558,0,0,1-.646-.522,1.3,1.3,0,0,1-.234-.767A1.419,1.419,0,0,1-2.982-10.4a2.137,2.137,0,0,1,1.365-.414A2,2,0,0,1-.308-10.4,1.444,1.444,0,0,1,.2-9.221ZM-.776-6.587a.88.88,0,0,0-.242-.638.8.8,0,0,0-.6-.25.9.9,0,0,0-.652.25.847.847,0,0,0-.26.638.815.815,0,0,0,.258.632.943.943,0,0,0,.663.236.808.808,0,0,0,.6-.236A.855.855,0,0,0-.776-6.587ZM-.968-9.169a.791.791,0,0,0-.18-.546.6.6,0,0,0-.468-.2.7.7,0,0,0-.524.2.748.748,0,0,0-.2.55.816.816,0,0,0,.2.574.683.683,0,0,0,.528.218.57.57,0,0,0,.464-.216A.885.885,0,0,0-.968-9.169Z" transform="translate(65.09 83.29)" fill="#fff"/>
	<path id="Path_109" data-name="Path 109" d="M-3.361-7.082l.37-3.582H.581v1.03H-1.94l-.176,1.5a1.552,1.552,0,0,1,.453-.218,2.171,2.171,0,0,1,.594-.095A1.7,1.7,0,0,1,.315-7.9,2.344,2.344,0,0,1,.805-6.312,2.247,2.247,0,0,1,.273-4.768a2.06,2.06,0,0,1-1.628.6,2.463,2.463,0,0,1-1.514-.469,1.464,1.464,0,0,1-.607-1.287l.009-.022L-2.231-6a.81.81,0,0,0,.242.625.9.9,0,0,0,.634.224.756.756,0,0,0,.667-.3A1.48,1.48,0,0,0-.479-6.3a1.516,1.516,0,0,0-.229-.882.773.773,0,0,0-.678-.328.984.984,0,0,0-.565.136.744.744,0,0,0-.279.37Z" transform="translate(19.895 52.703)" fill="#fff"/>
</svg>
