<svg id="Capa_1" enable-background="new 0 0 512 512" height="512" viewBox="0 0 512 512" width="512" xmlns="http://www.w3.org/2000/svg" xmlns:xlink="http://www.w3.org/1999/xlink"><linearGradient id="SVGID_1_" gradientUnits="userSpaceOnUse" x1="256" x2="256" y1="512" y2="0"><stop offset="0" stop-color="#addcff"/><stop offset=".5028" stop-color="#eaf6ff"/><stop offset="1" stop-color="#eaf6ff"/></linearGradient><linearGradient id="SVGID_2_" gradientUnits="userSpaceOnUse" x1="256" x2="256" y1="407" y2="105"><stop offset="0" stop-color="#00c0ff"/><stop offset="1" stop-color="#5558ff"/></linearGradient><g><g><circle cx="256" cy="256" fill="url(#SVGID_1_)" r="256"/></g><g><g><path d="m193.808 256c0-53.875 43.85-97.706 97.731-97.706 2.999 0 5.954.184 8.885.45v-27.097c0-14.694-11.956-26.647-26.654-26.647h-106.616c-14.698 0-26.654 11.953-26.654 26.647v248.706c0 14.694 11.956 26.647 26.654 26.647h106.615c14.698 0 26.654-11.953 26.654-26.647v-27.097c-2.93.266-5.886.45-8.885.45-53.88 0-97.73-43.831-97.73-97.706zm26.654-115.471c4.906 0 8.885 3.976 8.885 8.882 0 4.905-3.978 8.883-8.885 8.883s-8.885-3.977-8.885-8.883 3.978-8.882 8.885-8.882zm8.884 230.942h-17.769c-4.911 0-8.885-3.973-8.885-8.883 0-4.909 3.974-8.882 8.885-8.882h17.769c4.911 0 8.885 3.973 8.885 8.882 0 4.91-3.974 8.883-8.885 8.883zm62.192-195.412c-44.093 0-79.962 35.859-79.962 79.941s35.868 79.941 79.962 79.941 79.962-35.859 79.962-79.941-35.868-79.941-79.962-79.941zm35.539 88.823h-35.538c-4.911 0-8.885-3.973-8.885-8.882v-35.529c0-4.91 3.974-8.883 8.885-8.883s8.885 3.973 8.885 8.883v26.647h26.654c4.911 0 8.885 3.973 8.885 8.882s-3.975 8.882-8.886 8.882z" fill="url(#SVGID_2_)"/></g></g></g></svg>